<svg viewBox="0 0 100 100" xmlns="http://www.w3.org/2000/svg">
  <defs>
    <linearGradient id="processing-gradient" x1="0%" y1="0%" x2="100%" y2="100%">
      <stop offset="0%" style="stop-color:#3A5BC8;stop-opacity:1" />
      <stop offset="100%" style="stop-color:#00A3B4;stop-opacity:1" />
    </linearGradient>
  </defs>
  
  <!-- Input documents flowing in -->
  <rect x="8" y="15" width="18" height="12" rx="2" fill="none" stroke="#E9ECEF" stroke-width="4" />
  <rect x="12" y="35" width="16" height="10" rx="2" fill="none" stroke="#E9ECEF" stroke-width="4" />
  <rect x="5" y="52" width="20" height="13" rx="2" fill="none" stroke="#E9ECEF" stroke-width="4" />
  <rect x="10" y="72" width="17" height="11" rx="2" fill="none" stroke="#E9ECEF" stroke-width="4" />
  
  <!-- Central processing circle -->
  <circle cx="50" cy="50" r="18" fill="url(#processing-gradient)" stroke="#FFFFFF" stroke-width="2" />
  
  <!-- Output organized documents -->
  <rect x="75" y="25" width="18" height="12" rx="2" fill="none" stroke="#3A5BC8" stroke-width="4" />
  <rect x="75" y="45" width="18" height="12" rx="2" fill="none" stroke="#3A5BC8" stroke-width="4" />
  <rect x="75" y="65" width="18" height="12" rx="2" fill="none" stroke="#3A5BC8" stroke-width="4" />
  
  <!-- Flow lines -->
  <path d="M 30 25 Q 40 30 32 50" fill="none" stroke="url(#processing-gradient)" stroke-width="3" opacity="0.7" />
  <path d="M 30 45 Q 35 48 32 50" fill="none" stroke="url(#processing-gradient)" stroke-width="3" opacity="0.7" />
  <path d="M 68 50 Q 72 35 75 31" fill="none" stroke="url(#processing-gradient)" stroke-width="3" opacity="0.7" />
  <path d="M 68 50 Q 72 50 75 51" fill="none" stroke="url(#processing-gradient)" stroke-width="3" opacity="0.7" />
  <path d="M 68 50 Q 72 65 75 71" fill="none" stroke="url(#processing-gradient)" stroke-width="3" opacity="0.7" />
</svg>