<svg viewBox="0 0 800 600" xmlns="http://www.w3.org/2000/svg">
  <defs>
    <!-- Primary Intelligence Gradient -->
    <linearGradient id="primary-gradient" x1="0%" y1="0%" x2="100%" y2="100%">
      <stop offset="0%" style="stop-color:#3A5BC8;stop-opacity:1" />
      <stop offset="100%" style="stop-color:#00A3B4;stop-opacity:1" />
    </linearGradient>
    
    <!-- Subtle Background Gradient -->
    <linearGradient id="bg-gradient" x1="0%" y1="0%" x2="100%" y2="0%">
      <stop offset="0%" style="stop-color:#F8F9FA;stop-opacity:1" />
      <stop offset="100%" style="stop-color:#E9ECEF;stop-opacity:1" />
    </linearGradient>
    
    <!-- Document color progression -->
    <linearGradient id="doc-progression" x1="0%" y1="0%" x2="100%" y2="0%">
      <stop offset="0%" style="stop-color:#E9ECEF;stop-opacity:1" />
      <stop offset="100%" style="stop-color:#3A5BC8;stop-opacity:1" />
    </linearGradient>
  </defs>
  
  <!-- Background -->
  <rect width="800" height="600" fill="url(#bg-gradient)" />
  
  <!-- Main content group -->
  <g class="ralph-hero-content">
    
    <!-- Left side: Reduced scattered documents (chaos) - 8 documents instead of 15 -->
    <g class="chaos-documents">
      <rect x="50" y="150" width="32" height="24" rx="4" fill="#E9ECEF" transform="rotate(15)" />
      <rect x="90" y="190" width="28" height="22" rx="4" fill="#E9ECEF" transform="rotate(-20)" />
      <rect x="120" y="130" width="36" height="26" rx="4" fill="#E9ECEF" transform="rotate(45)" />
      <rect x="80" y="230" width="30" height="23" rx="4" fill="#E9ECEF" transform="rotate(-10)" />
      <rect x="140" y="210" width="34" height="25" rx="4" fill="#E9ECEF" transform="rotate(30)" />
      <rect x="60" y="280" width="32" height="24" rx="4" fill="#E9ECEF" transform="rotate(-35)" />
      <rect x="110" y="320" width="29" height="22" rx="4" fill="#E9ECEF" transform="rotate(10)" />
      <rect x="150" y="270" width="33" height="25" rx="4" fill="#E9ECEF" transform="rotate(-25)" />
    </g>
    
    <!-- Center: Ralph processor (simplified with single pattern) -->
    <g class="ralph-processor">
      <circle cx="400" cy="300" r="80" fill="url(#primary-gradient)" />
      <!-- Single simple internal pattern instead of 3 concentric circles -->
      <circle cx="400" cy="300" r="35" fill="#FFFFFF" opacity="0.9" />
    </g>
    
    <!-- Right side: Organized documents (simplified clusters) -->
    <g class="organized-documents">
      <!-- Cluster 1 (3 documents) -->
      <rect x="580" y="160" width="32" height="24" rx="4" fill="url(#doc-progression)" />
      <rect x="580" y="190" width="32" height="24" rx="4" fill="url(#doc-progression)" />
      <rect x="580" y="220" width="32" height="24" rx="4" fill="url(#doc-progression)" />
      
      <!-- Cluster 2 (3 documents) -->
      <rect x="630" y="160" width="32" height="24" rx="4" fill="url(#doc-progression)" />
      <rect x="630" y="190" width="32" height="24" rx="4" fill="url(#doc-progression)" />
      <rect x="630" y="220" width="32" height="24" rx="4" fill="url(#doc-progression)" />
      
      <!-- Cluster 3 (2 documents) -->
      <rect x="605" y="320" width="32" height="24" rx="4" fill="url(#doc-progression)" />
      <rect x="605" y="350" width="32" height="24" rx="4" fill="url(#doc-progression)" />
    </g>
    
    <!-- Strengthened flow lines (6px instead of 4px) -->
    <g class="flow-lines">
      <!-- Flow line 1: Top cluster -->
      <path d="M 180 180 Q 280 160 320 220 Q 360 280 480 190" fill="none" stroke="url(#primary-gradient)" stroke-width="6" opacity="0.8" />
      
      <!-- Flow line 2: Bottom cluster -->
      <path d="M 180 300 Q 280 320 320 340 Q 360 320 480 340" fill="none" stroke="url(#primary-gradient)" stroke-width="6" opacity="0.8" />
    </g>
    
  </g>
</svg>