<svg viewBox="0 0 600 400" xmlns="http://www.w3.org/2000/svg">
  <defs>
    <!-- Primary gradient -->
    <linearGradient id="metrics-primary" x1="0%" y1="0%" x2="100%" y2="100%">
      <stop offset="0%" style="stop-color:#3A5BC8;stop-opacity:1" />
      <stop offset="100%" style="stop-color:#00A3B4;stop-opacity:1" />
    </linearGradient>
    
    <!-- Success indicator gradient -->
    <linearGradient id="metrics-success" x1="0%" y1="0%" x2="100%" y2="0%">
      <stop offset="0%" style="stop-color:#00A3B4;stop-opacity:1" />
      <stop offset="100%" style="stop-color:#FF7851;stop-opacity:1" />
    </linearGradient>
    
    <!-- Background -->
    <linearGradient id="metrics-bg" x1="0%" y1="0%" x2="100%" y2="0%">
      <stop offset="0%" style="stop-color:#F8F9FA;stop-opacity:1" />
      <stop offset="100%" style="stop-color:#E9ECEF;stop-opacity:0.8" />
    </linearGradient>
  </defs>
  
  <!-- Background -->
  <rect width="600" height="400" fill="url(#metrics-bg)" />
  
  <!-- Performance comparison visualization -->
  <g class="performance-comparison">
    
    <!-- Traditional approach (left side - smaller, slower) -->
    <g class="traditional-approach">
      <!-- Traditional processing elements (small, inefficient) -->
      <rect x="50" y="150" width="20" height="15" rx="3" fill="#E9ECEF" />
      <rect x="50" y="180" width="18" height="12" rx="3" fill="#E9ECEF" />
      <rect x="50" y="210" width="22" height="16" rx="3" fill="#E9ECEF" />
      <rect x="50" y="240" width="19" height="13" rx="3" fill="#E9ECEF" />
      
      <!-- Slow processing indicator -->
      <circle cx="130" cy="200" r="25" fill="#E9ECEF" opacity="0.8" />
      <circle cx="130" cy="200" r="15" fill="none" stroke="#FFFFFF" stroke-width="2" />
      
      <!-- Limited output -->
      <rect x="180" y="190" width="25" height="18" rx="3" fill="#E9ECEF" />
      <rect x="180" y="215" width="25" height="18" rx="3" fill="#E9ECEF" />
    </g>
    
    <!-- Dividing line -->
    <line x1="300" y1="80" x2="300" y2="320" stroke="url(#metrics-primary)" stroke-width="3" opacity="0.3" />
    
    <!-- Ralph-powered approach (right side - larger, more efficient) -->
    <g class="ralph-approach">
      <!-- High-volume input processing -->
      <rect x="330" y="120" width="25" height="18" rx="3" fill="url(#metrics-primary)" opacity="0.7" />
      <rect x="330" y="145" width="28" height="20" rx="3" fill="url(#metrics-primary)" opacity="0.7" />
      <rect x="330" y="170" width="26" height="19" rx="3" fill="url(#metrics-primary)" opacity="0.7" />
      <rect x="330" y="195" width="30" height="22" rx="3" fill="url(#metrics-primary)" opacity="0.7" />
      <rect x="330" y="220" width="27" height="20" rx="3" fill="url(#metrics-primary)" opacity="0.7" />
      <rect x="330" y="245" width="29" height="21" rx="3" fill="url(#metrics-primary)" opacity="0.7" />
      <rect x="330" y="270" width="25" height="18" rx="3" fill="url(#metrics-primary)" opacity="0.7" />
      
      <!-- Powerful Ralph processor -->
      <circle cx="420" cy="200" r="45" fill="url(#metrics-primary)" />
      <circle cx="420" cy="200" r="30" fill="none" stroke="#FFFFFF" stroke-width="3" opacity="0.8" />
      <circle cx="420" cy="200" r="15" fill="#FFFFFF" opacity="0.9" />
      
      <!-- Enhanced output results -->
      <circle cx="520" cy="150" r="20" fill="url(#metrics-success)" />
      <circle cx="520" cy="190" r="22" fill="url(#metrics-success)" />
      <circle cx="520" cy="230" r="18" fill="url(#metrics-success)" />
      <circle cx="520" cy="270" r="24" fill="url(#metrics-success)" />
    </g>
    
    <!-- Speed indicators (streamlined arrows on Ralph side) -->
    <g class="speed-indicators">
      <path d="M 365 140 Q 385 135 390 155" fill="none" stroke="url(#metrics-primary)" stroke-width="3" />
      <path d="M 365 180 Q 385 175 390 195" fill="none" stroke="url(#metrics-primary)" stroke-width="3" />
      <path d="M 365 220 Q 385 215 390 235" fill="none" stroke="url(#metrics-primary)" stroke-width="3" />
      
      <!-- Output flow -->
      <path d="M 465 170 Q 485 165 500 155" fill="none" stroke="url(#metrics-success)" stroke-width="4" />
      <path d="M 465 200 Q 485 195 500 190" fill="none" stroke="url(#metrics-success)" stroke-width="4" />
      <path d="M 465 230 Q 485 235 500 240" fill="none" stroke="url(#metrics-success)" stroke-width="4" />
      <path d="M 465 260 Q 485 265 500 270" fill="none" stroke="url(#metrics-success)" stroke-width="4" />
    </g>
    
    <!-- Volume representation (more on Ralph side) -->
    <g class="volume-indicators">
      <!-- Traditional volume (limited) -->
      <circle cx="90" cy="120" r="8" fill="#E9ECEF" opacity="0.6" />
      <circle cx="110" cy="130" r="6" fill="#E9ECEF" opacity="0.6" />
      <circle cx="120" cy="150" r="7" fill="#E9ECEF" opacity="0.6" />
      
      <!-- Ralph volume (extensive) -->
      <circle cx="370" cy="90" r="12" fill="url(#metrics-primary)" opacity="0.5" />
      <circle cx="390" cy="100" r="10" fill="url(#metrics-primary)" opacity="0.5" />
      <circle cx="410" cy="110" r="14" fill="url(#metrics-primary)" opacity="0.5" />
      <circle cx="430" cy="95" r="11" fill="url(#metrics-primary)" opacity="0.5" />
      <circle cx="450" cy="105" r="13" fill="url(#metrics-primary)" opacity="0.5" />
      <circle cx="470" cy="115" r="9" fill="url(#metrics-primary)" opacity="0.5" />
      
      <!-- Success outcomes (larger, brighter on Ralph side) -->
      <circle cx="550" cy="120" r="15" fill="url(#metrics-success)" opacity="0.8" />
      <circle cx="570" cy="180" r="18" fill="url(#metrics-success)" opacity="0.8" />
      <circle cx="560" cy="240" r="16" fill="url(#metrics-success)" opacity="0.8" />
      <circle cx="540" cy="300" r="20" fill="url(#metrics-success)" opacity="0.8" />
    </g>
    
  </g>
</svg>