<svg viewBox="0 0 600 400" xmlns="http://www.w3.org/2000/svg">
  <defs>
    <!-- Primary Intelligence Gradient -->
    <linearGradient id="ecosystem-primary" x1="0%" y1="0%" x2="100%" y2="100%">
      <stop offset="0%" style="stop-color:#3A5BC8;stop-opacity:1" />
      <stop offset="100%" style="stop-color:#00A3B4;stop-opacity:1" />
    </linearGradient>
    
    <!-- Secondary agent gradient -->
    <linearGradient id="ecosystem-secondary" x1="0%" y1="0%" x2="100%" y2="100%">
      <stop offset="0%" style="stop-color:#3A5BC8;stop-opacity:0.5" />
      <stop offset="100%" style="stop-color:#00A3B4;stop-opacity:0.5" />
    </linearGradient>
    
    <!-- Background -->
    <linearGradient id="ecosystem-bg" x1="0%" y1="0%" x2="100%" y2="100%">
      <stop offset="0%" style="stop-color:#F8F9FA;stop-opacity:1" />
      <stop offset="100%" style="stop-color:#E9ECEF;stop-opacity:0.8" />
    </linearGradient>
  </defs>
  
  <!-- Background -->
  <rect width="600" height="400" fill="url(#ecosystem-bg)" />
  
  <!-- Ecosystem background activity (larger circles) -->
  <circle cx="150" cy="100" r="40" fill="url(#ecosystem-secondary)" opacity="0.2" />
  <circle cx="450" cy="120" r="45" fill="url(#ecosystem-secondary)" opacity="0.2" />
  <circle cx="120" cy="300" r="35" fill="url(#ecosystem-secondary)" opacity="0.2" />
  <circle cx="480" cy="320" r="50" fill="url(#ecosystem-secondary)" opacity="0.2" />
  
  <!-- Main ecosystem network -->
  <g class="ecosystem-network">
    
    <!-- Central Ralph node (largest, most prominent) -->
    <circle cx="300" cy="200" r="60" fill="url(#ecosystem-primary)" />
    <circle cx="300" cy="200" r="35" fill="none" stroke="#FFFFFF" stroke-width="3" opacity="0.7" />
    <circle cx="300" cy="200" r="20" fill="#FFFFFF" opacity="0.9" />
    
    <!-- Future agent nodes (pentagon arrangement around Ralph) -->
    <!-- Top agent -->
    <circle cx="300" cy="100" r="40" fill="url(#ecosystem-secondary)" />
    <circle cx="300" cy="100" r="25" fill="none" stroke="#FFFFFF" stroke-width="2" opacity="0.6" />
    
    <!-- Top-right agent -->
    <circle cx="450" cy="150" r="40" fill="url(#ecosystem-secondary)" />
    <circle cx="450" cy="150" r="25" fill="none" stroke="#FFFFFF" stroke-width="2" opacity="0.6" />
    
    <!-- Bottom-right agent -->
    <circle cx="450" cy="250" r="40" fill="url(#ecosystem-secondary)" />
    <circle cx="450" cy="250" r="25" fill="none" stroke="#FFFFFF" stroke-width="2" opacity="0.6" />
    
    <!-- Bottom-left agent -->
    <circle cx="150" cy="250" r="40" fill="url(#ecosystem-secondary)" />
    <circle cx="150" cy="250" r="25" fill="none" stroke="#FFFFFF" stroke-width="2" opacity="0.6" />
    
    <!-- Top-left agent -->
    <circle cx="150" cy="150" r="40" fill="url(#ecosystem-secondary)" />
    <circle cx="150" cy="150" r="25" fill="none" stroke="#FFFFFF" stroke-width="2" opacity="0.6" />
    
    <!-- Primary connections (Ralph to all agents) -->
    <line x1="300" y1="140" x2="300" y2="160" stroke="url(#ecosystem-primary)" stroke-width="4" />
    <line x1="360" y1="180" x2="410" y2="160" stroke="url(#ecosystem-primary)" stroke-width="4" />
    <line x1="360" y1="220" x2="410" y2="240" stroke="url(#ecosystem-primary)" stroke-width="4" />
    <line x1="240" y1="220" x2="190" y2="240" stroke="url(#ecosystem-primary)" stroke-width="4" />
    <line x1="240" y1="180" x2="190" y2="160" stroke="url(#ecosystem-primary)" stroke-width="4" />
    
    <!-- Inter-agent collaboration connections -->
    <line x1="260" y1="120" x2="190" y2="140" stroke="url(#ecosystem-secondary)" stroke-width="3" opacity="0.7" />
    <line x1="340" y1="120" x2="410" y2="140" stroke="url(#ecosystem-secondary)" stroke-width="3" opacity="0.7" />
    <line x1="410" y1="180" x2="410" y2="220" stroke="url(#ecosystem-secondary)" stroke-width="3" opacity="0.7" />
    <line x1="190" y1="180" x2="190" y2="220" stroke="url(#ecosystem-secondary)" stroke-width="3" opacity="0.7" />
    <line x1="190" y1="240" x2="410" y2="240" stroke="url(#ecosystem-secondary)" stroke-width="3" opacity="0.7" />
    
  </g>
</svg>