<svg viewBox="0 0 600 400" xmlns="http://www.w3.org/2000/svg">
  <defs>
    <!-- Transformation gradient -->
    <linearGradient id="transform-gradient" x1="0%" y1="0%" x2="100%" y2="0%">
      <stop offset="0%" style="stop-color:#E9ECEF;stop-opacity:1" />
      <stop offset="50%" style="stop-color:#3A5BC8;stop-opacity:0.6" />
      <stop offset="100%" style="stop-color:#3A5BC8;stop-opacity:1" />
    </linearGradient>
    
    <!-- Primary gradient -->
    <linearGradient id="solution-primary" x1="0%" y1="0%" x2="100%" y2="100%">
      <stop offset="0%" style="stop-color:#3A5BC8;stop-opacity:1" />
      <stop offset="100%" style="stop-color:#00A3B4;stop-opacity:1" />
    </linearGradient>
    
    <!-- Background -->
    <linearGradient id="problem-bg" x1="0%" y1="0%" x2="100%" y2="0%">
      <stop offset="0%" style="stop-color:#F8F9FA;stop-opacity:1" />
      <stop offset="100%" style="stop-color:#E9ECEF;stop-opacity:0.8" />
    </linearGradient>
  </defs>
  
  <!-- Background -->
  <rect width="600" height="400" fill="url(#problem-bg)" />
  
  <!-- Document chaos to organization transformation -->
  <g class="chaos-to-order">
    
    <!-- Left third: Reduced document chaos (8 documents instead of 15) -->
    <g class="document-chaos">
      <rect x="40" y="140" width="28" height="20" rx="4" fill="#E9ECEF" transform="rotate(25 54 150)" />
      <rect x="70" y="110" width="24" height="18" rx="4" fill="#E9ECEF" transform="rotate(-30 82 119)" />
      <rect x="55" y="180" width="30" height="22" rx="4" fill="#E9ECEF" transform="rotate(45 70 191)" />
      <rect x="90" y="160" width="26" height="19" rx="4" fill="#E9ECEF" transform="rotate(-15 103 169)" />
      <rect x="35" y="220" width="28" height="21" rx="4" fill="#E9ECEF" transform="rotate(35 49 230)" />
      <rect x="80" y="200" width="25" height="18" rx="4" fill="#E9ECEF" transform="rotate(-40 92 209)" />
      <rect x="60" y="260" width="30" height="23" rx="4" fill="#E9ECEF" transform="rotate(20 75 271)" />
      <rect x="95" y="240" width="27" height="20" rx="4" fill="#E9ECEF" transform="rotate(-25 108 250)" />
    </g>
    
    <!-- Center third: BOLD transformation arrow (dominant visual element) -->
    <g class="transformation-arrow">
      <line x1="200" y1="200" x2="350" y2="200" stroke="url(#solution-primary)" stroke-width="12" stroke-linecap="round" />
      <polygon points="350,200 330,180 330,190 310,190 310,210 330,210 330,220" fill="url(#solution-primary)" />
    </g>
    
    <!-- Right third: Simplified organized structure (3x3 grid = 9 documents) -->
    <g class="organized-structure">
      <!-- Row 1 -->
      <rect x="420" y="140" width="32" height="24" rx="4" fill="url(#transform-gradient)" />
      <rect x="460" y="140" width="32" height="24" rx="4" fill="url(#transform-gradient)" />
      <rect x="500" y="140" width="32" height="24" rx="4" fill="url(#transform-gradient)" />
      
      <!-- Row 2 -->
      <rect x="420" y="180" width="32" height="24" rx="4" fill="url(#transform-gradient)" />
      <rect x="460" y="180" width="32" height="24" rx="4" fill="url(#transform-gradient)" />
      <rect x="500" y="180" width="32" height="24" rx="4" fill="url(#transform-gradient)" />
      
      <!-- Row 3 -->
      <rect x="420" y="220" width="32" height="24" rx="4" fill="url(#transform-gradient)" />
      <rect x="460" y="220" width="32" height="24" rx="4" fill="url(#transform-gradient)" />
      <rect x="500" y="220" width="32" height="24" rx="4" fill="url(#transform-gradient)" />
    </g>
    
  </g>
</svg>