<svg viewBox="0 0 600 400" xmlns="http://www.w3.org/2000/svg">
  <defs>
    <!-- Primary gradient -->
    <linearGradient id="metrics-primary" x1="0%" y1="0%" x2="100%" y2="100%">
      <stop offset="0%" style="stop-color:#3A5BC8;stop-opacity:1" />
      <stop offset="100%" style="stop-color:#00A3B4;stop-opacity:1" />
    </linearGradient>
    
    <!-- Background -->
    <linearGradient id="metrics-bg" x1="0%" y1="0%" x2="100%" y2="0%">
      <stop offset="0%" style="stop-color:#F8F9FA;stop-opacity:1" />
      <stop offset="100%" style="stop-color:#E9ECEF;stop-opacity:0.8" />
    </linearGradient>
  </defs>
  
  <!-- Background -->
  <rect width="600" height="400" fill="url(#metrics-bg)" />
  
  <!-- Bold performance comparison visualization -->
  <g class="performance-comparison">
    
    <!-- Traditional approach (left side - small, limited) -->
    <g class="traditional-approach">
      <!-- Small traditional processing element -->
      <rect x="80" y="180" width="30" height="22" rx="4" fill="#E9ECEF" />
      
      <!-- Tiny traditional processor -->
      <circle cx="150" cy="200" r="20" fill="#E9ECEF" opacity="0.8" />
      
      <!-- Small output -->
      <rect x="200" y="190" width="25" height="18" rx="3" fill="#E9ECEF" />
    </g>
    
    <!-- Dividing line -->
    <line x1="300" y1="80" x2="300" y2="320" stroke="url(#metrics-primary)" stroke-width="4" opacity="0.4" />
    
    <!-- Ralph-powered approach (right side - dramatically larger and more powerful) -->
    <g class="ralph-approach">
      <!-- Large Ralph processor (dominant element) -->
      <circle cx="450" cy="200" r="80" fill="url(#metrics-primary)" />
      <circle cx="450" cy="200" r="35" fill="#FFFFFF" opacity="0.9" />
      
      <!-- Large, impressive outputs -->
      <circle cx="540" cy="150" r="25" fill="url(#metrics-primary)" />
      <circle cx="540" cy="200" r="30" fill="url(#metrics-primary)" />
      <circle cx="540" cy="250" r="25" fill="url(#metrics-primary)" />
    </g>
    
    <!-- Simple flow indicators -->
    <line x1="120" y1="191" x2="130" y2="195" stroke="#E9ECEF" stroke-width="3" />
    <line x1="170" y1="200" x2="200" y2="200" stroke="#E9ECEF" stroke-width="3" />
    
    <line x1="370" y1="170" x2="410" y2="180" stroke="url(#metrics-primary)" stroke-width="5" />
    <line x1="370" y1="200" x2="410" y2="200" stroke="url(#metrics-primary)" stroke-width="5" />
    <line x1="370" y1="230" x2="410" y2="220" stroke="url(#metrics-primary)" stroke-width="5" />
    
    <line x1="490" y1="160" x2="515" y2="155" stroke="url(#metrics-primary)" stroke-width="5" />
    <line x1="490" y1="200" x2="510" y2="200" stroke="url(#metrics-primary)" stroke-width="5" />
    <line x1="490" y1="240" x2="515" y2="245" stroke="url(#metrics-primary)" stroke-width="5" />
    
  </g>
</svg>